<svg width="11" height="22" viewBox="0 0 11 22" fill="none" xmlns="http://www.w3.org/2000/svg">
<circle cx="5.5" cy="10.5" r="5.5" fill="white"/>
<circle cx="5.5" cy="10.5" r="5" stroke="#3D5467" stroke-opacity="0.5"/>
<path d="M5.7373 12.2158H5.2583L5.05615 7.5752H5.93945L5.7373 12.2158ZM4.96826 13.543C4.96826 13.3379 5.01807 13.1929 5.11768 13.1079C5.21729 13.02 5.3418 12.9761 5.49121 12.9761C5.6377 12.9761 5.76074 13.02 5.86035 13.1079C5.96289 13.1929 6.01416 13.3379 6.01416 13.543C6.01416 13.7451 5.96289 13.8931 5.86035 13.9868C5.76074 14.0776 5.6377 14.123 5.49121 14.123C5.3418 14.123 5.21729 14.0776 5.11768 13.9868C5.01807 13.8931 4.96826 13.7451 4.96826 13.543Z" fill="#3D5467"/>
</svg>
