<svg width="20" height="20" viewBox="0 0 20 20" fill="none" xmlns="http://www.w3.org/2000/svg">
<g id="back 1" clip-path="url(#clip0_1276_155)">
<path id="Vector" d="M10 0.625C8.1458 0.625 6.33324 1.17483 4.79153 2.20497C3.24982 3.23511 2.04821 4.69929 1.33863 6.41234C0.629062 8.1254 0.443406 10.0104 0.805142 11.829C1.16688 13.6475 2.05976 15.318 3.37088 16.6291C4.68199 17.9402 6.35246 18.8331 8.17103 19.1949C9.9896 19.5566 11.8746 19.3709 13.5877 18.6614C15.3007 17.9518 16.7649 16.7502 17.795 15.2085C18.8252 13.6668 19.375 11.8542 19.375 10C19.3722 7.51446 18.3836 5.13152 16.626 3.37398C14.8685 1.61644 12.4855 0.627812 10 0.625ZM11.6919 13.3081C11.7516 13.3658 11.7992 13.4347 11.8319 13.511C11.8647 13.5872 11.8819 13.6693 11.8827 13.7522C11.8834 13.8352 11.8676 13.9175 11.8361 13.9943C11.8047 14.0712 11.7583 14.1409 11.6996 14.1996C11.6409 14.2583 11.5712 14.3047 11.4943 14.3361C11.4175 14.3676 11.3352 14.3834 11.2523 14.3827C11.1693 14.3819 11.0873 14.3647 11.011 14.3319C10.9347 14.2992 10.8658 14.2516 10.8081 14.1919L7.05813 10.4419C6.94096 10.3247 6.87514 10.1657 6.87514 10C6.87514 9.83427 6.94096 9.67533 7.05813 9.55813L10.8081 5.80813C10.926 5.69428 11.0839 5.63128 11.2478 5.6327C11.4116 5.63413 11.5684 5.69986 11.6843 5.81574C11.8001 5.93162 11.8659 6.08838 11.8673 6.25225C11.8687 6.41612 11.8057 6.574 11.6919 6.69187L8.38375 10L11.6919 13.3081Z" fill="#3D5467"/>
</g>
<defs>
<clipPath id="clip0_1276_155">
<rect width="20" height="20" fill="white"/>
</clipPath>
</defs>
</svg>
