<svg width="9" height="9" viewBox="0 0 9 9" fill="none" xmlns="http://www.w3.org/2000/svg">
<g id="fi_1828911" clip-path="url(#clip0_1136_1024)">
<path id="Vector" d="M5.55799 1.51172L0.606059 6.464C0.581146 6.48899 0.563157 6.52054 0.554591 6.55445L0.00571709 8.75751C-0.0107013 8.82382 0.00878662 8.89435 0.0571852 8.94275C0.0938053 8.97937 0.143703 8.99964 0.194743 8.99964C0.210376 8.99964 0.226366 8.99772 0.241928 8.99379L2.44499 8.44485C2.47933 8.43628 2.51052 8.41836 2.53543 8.39345L7.48779 3.44152L5.55799 1.51172Z" fill="#3D5467"/>
<path id="Vector_2" d="M8.71433 0.836195L8.1631 0.284966C7.79469 -0.0834483 7.15259 -0.0830914 6.7846 0.284966L6.10938 0.96019L8.03911 2.88992L8.71433 2.2147C8.89836 2.03074 8.99973 1.78589 8.99973 1.52548C8.99973 1.26507 8.89836 1.02022 8.71433 0.836195Z" fill="#3D5467"/>
</g>
<defs>
<clipPath id="clip0_1136_1024">
<rect width="9" height="9" fill="white"/>
</clipPath>
</defs>
</svg>
