<svg width="20" height="20" viewBox="0 0 20 20" fill="none" xmlns="http://www.w3.org/2000/svg">
<g id="fi_386220">
<g id="Group">
<g id="Group_2">
<path id="Vector" d="M19.8692 4.53125L14.187 10.2134L19.729 15.7595C19.8968 15.471 20.0001 15.1403 20.0001 14.7832V5.21777C20.0001 4.97535 19.9501 4.74562 19.8692 4.53125Z" fill="currentColor"/>
</g>
</g>
<g id="Group_3">
<g id="Group_4">
<path id="Vector_2" d="M18.0433 3.26074H1.95633C1.63105 3.26074 1.32875 3.34809 1.05859 3.48914L9.5998 12.0303C9.84762 12.2781 10.278 12.2781 10.5215 12.0303L19.0225 3.5334C18.7334 3.36453 18.4017 3.26074 18.0433 3.26074Z" fill="currentColor"/>
</g>
</g>
<g id="Group_5">
<g id="Group_6">
<path id="Vector_3" d="M0.164102 4.4375C0.0596484 4.67664 0 4.93961 0 5.21688V14.7823C0 15.1337 0.100508 15.4591 0.263398 15.7445L5.86523 10.1386L0.164102 4.4375Z" fill="currentColor"/>
</g>
</g>
<g id="Group_7">
<g id="Group_8">
<path id="Vector_4" d="M13.2606 11.1393L11.4476 12.9567C10.686 13.7096 9.45211 13.722 8.67801 12.9567L6.79105 11.0654L1.25 16.6025C1.46973 16.6882 1.70664 16.7395 1.95629 16.7395H18.0432C18.2868 16.7395 18.5177 16.6894 18.733 16.6077L13.2606 11.1393Z" fill="currentColor"/>
</g>
</g>
</g>
</svg>
