<svg width="20" height="20" viewBox="0 0 20 20" fill="none" xmlns="http://www.w3.org/2000/svg">
<path d="M18.1242 9.16667V14.1667C18.1732 14.5889 18.126 15.0167 17.9862 15.4181C17.8465 15.8195 17.6178 16.1841 17.3172 16.4847C17.0167 16.7852 16.6521 17.014 16.2507 17.1537C15.8493 17.2934 15.4214 17.3406 14.9992 17.2917H4.99922C4.577 17.3406 4.14918 17.2934 3.74777 17.1537C3.34636 17.014 2.98173 16.7852 2.68118 16.4847C2.38063 16.1841 2.15193 15.8195 2.01219 15.4181C1.87245 15.0167 1.82528 14.5889 1.87422 14.1667V5.83333C1.82528 5.41112 1.87245 4.9833 2.01219 4.58189C2.15193 4.18047 2.38063 3.81585 2.68118 3.5153C2.98173 3.21475 3.34636 2.98605 3.74777 2.84631C4.14918 2.70656 4.577 2.6594 4.99922 2.70833H10.8326C10.9983 2.70833 11.1573 2.77418 11.2745 2.89139C11.3917 3.0086 11.4576 3.16757 11.4576 3.33333C11.4576 3.49909 11.3917 3.65806 11.2745 3.77528C11.1573 3.89249 10.9983 3.95833 10.8326 3.95833H4.99922C3.68505 3.95833 3.12422 4.51917 3.12422 5.83333V13.5417L5.24088 11.425C5.39822 11.2689 5.61089 11.1813 5.83255 11.1813C6.05421 11.1813 6.26688 11.2689 6.42422 11.425L7.20755 12.2083C7.28544 12.2847 7.39015 12.3274 7.49922 12.3274C7.60828 12.3274 7.713 12.2847 7.79088 12.2083L11.9075 8.09167C12.0649 7.93554 12.2776 7.84793 12.4992 7.84793C12.7209 7.84793 12.9335 7.93554 13.0909 8.09167L16.8742 11.875V9.16667C16.8742 9.00091 16.9401 8.84194 17.0573 8.72473C17.1745 8.60751 17.3335 8.54167 17.4992 8.54167C17.665 8.54167 17.8239 8.60751 17.9412 8.72473C18.0584 8.84194 18.1242 9.00091 18.1242 9.16667ZM6.66005 6.45833C6.38337 6.45911 6.11831 6.56966 5.92308 6.76571C5.72785 6.96176 5.61841 7.22728 5.6188 7.50395C5.61919 7.78063 5.72937 8.04585 5.92515 8.24135C6.12092 8.43685 6.38629 8.54666 6.66297 8.54666C6.93964 8.54666 7.20501 8.43685 7.40079 8.24135C7.59657 8.04585 7.70675 7.78063 7.70713 7.50395C7.70752 7.22728 7.59808 6.96176 7.40285 6.76571C7.20762 6.56966 6.94256 6.45911 6.66588 6.45833H6.66005ZM14.1659 4.79167H15.2076V5.83333C15.2076 5.99909 15.2734 6.15806 15.3906 6.27528C15.5078 6.39249 15.6668 6.45833 15.8326 6.45833C15.9983 6.45833 16.1573 6.39249 16.2745 6.27528C16.3917 6.15806 16.4576 5.99909 16.4576 5.83333V4.79167H17.4992C17.665 4.79167 17.8239 4.72582 17.9412 4.60861C18.0584 4.4914 18.1242 4.33243 18.1242 4.16667C18.1242 4.00091 18.0584 3.84194 17.9412 3.72472C17.8239 3.60751 17.665 3.54167 17.4992 3.54167H16.4576V2.5C16.4576 2.33424 16.3917 2.17527 16.2745 2.05806C16.1573 1.94085 15.9983 1.875 15.8326 1.875C15.6668 1.875 15.5078 1.94085 15.3906 2.05806C15.2734 2.17527 15.2076 2.33424 15.2076 2.5V3.54167H14.1659C14.0001 3.54167 13.8412 3.60751 13.7239 3.72472C13.6067 3.84194 13.5409 4.00091 13.5409 4.16667C13.5409 4.33243 13.6067 4.4914 13.7239 4.60861C13.8412 4.72582 14.0001 4.79167 14.1659 4.79167Z" fill="currentColor"/>
</svg>
