<svg width="16" height="16" viewBox="0 0 16 16" fill="none" xmlns="http://www.w3.org/2000/svg">
<g id="fi_1828479" clip-path="url(#clip0_896_2619)">
<path id="Vector" d="M9.9999 8.66654C9.63125 8.66654 9.33328 8.96524 9.33328 9.33315V11.9999C9.33328 12.3672 9.03457 12.6665 8.66654 12.6665H6.66656V2.6666C6.66656 2.09727 6.30389 1.58861 5.75861 1.39928L5.56122 1.33324H8.66654C9.03457 1.33324 9.33328 1.63255 9.33328 1.99998V3.99996C9.33328 4.36787 9.63125 4.66658 9.9999 4.66658C10.3685 4.66658 10.6665 4.36787 10.6665 3.99996V1.99998C10.6665 0.897329 9.76919 0 8.66654 0H1.49998C1.47459 0 1.45335 0.0113524 1.4287 0.0146483C1.39659 0.0119628 1.36595 0 1.33336 0C0.598016 0 0 0.597894 0 1.33324V13.3331C0 13.9024 0.362667 14.4111 0.907949 14.6004L4.91999 15.9378C5.05598 15.9798 5.19123 15.9998 5.33332 15.9998C6.06866 15.9998 6.66656 15.4018 6.66656 14.6665V13.9999H8.66654C9.76919 13.9999 10.6665 13.1025 10.6665 11.9999V9.33315C10.6665 8.96524 10.3685 8.66654 9.9999 8.66654Z" fill="currentColor"/>
<path id="Vector_2" d="M15.805 6.19512L13.1383 3.52852C12.9477 3.33785 12.661 3.28048 12.4117 3.38375C12.163 3.48714 12.0003 3.73042 12.0003 3.99983V5.99981H9.33373C8.9657 5.99981 8.66699 6.29839 8.66699 6.66643C8.66699 7.03446 8.9657 7.33305 9.33373 7.33305H12.0003V9.33302C12.0003 9.60243 12.163 9.84572 12.4117 9.94911C12.661 10.0524 12.9477 9.99501 13.1383 9.80446L15.805 7.13774C16.0656 6.87712 16.0656 6.45574 15.805 6.19512Z" fill="currentColor"/>
</g>
<defs>
<clipPath id="clip0_896_2619">
<rect width="16" height="16" fill="white"/>
</clipPath>
</defs>
</svg>
