<svg width="20" height="20" viewBox="0 0 20 20" fill="none" xmlns="http://www.w3.org/2000/svg">
<path d="M19.3177 6.71918L14.7904 2.19187C14.4168 1.81832 14.0379 1.62891 13.6643 1.62891C13.1512 1.62891 12.5521 2.01914 12.5521 3.11898V4.66027C9.26285 4.80363 6.19117 6.15258 3.84836 8.49527C1.36695 10.9765 0.000234375 14.2755 0 17.7847C0 18.0368 0.16125 18.2607 0.400391 18.3405C0.461445 18.3609 0.523945 18.3707 0.585859 18.3707C0.766602 18.3707 0.941563 18.2868 1.05438 18.1366C3.82074 14.4544 7.98559 12.2782 12.5521 12.1064V13.624C12.5521 14.7238 13.1512 15.1141 13.6642 15.1141H13.6643C14.038 15.1141 14.4169 14.9247 14.7904 14.5512L19.3177 10.0238C19.7577 9.58391 20 8.99711 20 8.37149C20 7.74598 19.7577 7.15914 19.3177 6.71918Z" fill="#3D5467"/>
</svg>
