<svg width="87" height="12" viewBox="0 0 87 12" fill="none" xmlns="http://www.w3.org/2000/svg">
<g id="Frame" clip-path="url(#clip0_894_1140)">
<path id="Vector" d="M8.04048 1.58769L7.76281 1.78466C7.35462 0.818762 6.02799 0.180365 4.70136 0.180365C3.26081 0.180365 2.53935 0.965902 2.53935 1.96503C2.53935 2.71734 2.94992 3.45541 3.75207 4.02736L6.5857 6.07545C7.89571 7.00813 8.46766 8.12354 8.46766 9.10606C8.46766 10.7602 6.83014 11.8092 4.65152 11.8092C2.65326 11.8092 0.901825 10.9406 0 9.61393C1.06558 10.8266 2.7031 11.6454 4.09381 11.6454C5.45367 11.6454 6.41957 10.8765 6.41957 9.89397C6.41957 8.96129 5.56758 7.8791 4.50438 7.12679L2.16201 5.47265C0.93505 4.60405 0.458032 3.58831 0.458032 2.67225C0.458032 1.04896 1.94842 0 4.12704 0C5.84525 0 7.36886 0.65501 8.04048 1.58769Z" fill="#231F20"/>
<path id="Vector_2" d="M14.3437 0.180664L18.5349 11.6433H16.3562L15.3073 8.80971C14.4221 7.89364 13.0314 7.35255 11.999 7.54952C11.541 7.63259 11.147 7.8438 10.8361 8.18792L9.65663 11.6433H9.2959L13.3731 0.180664H14.3437ZM11.0046 7.69666C11.2657 7.46646 11.5766 7.30271 11.9373 7.23863C12.9863 7.05827 14.3604 7.66581 15.2788 8.72902L12.8534 2.11247L11.0046 7.69666Z" fill="#231F20"/>
<path id="Vector_3" d="M20.1895 0.180664H22.3206V11.4464L27.8217 11.2992V11.6433H20.1895V0.180664Z" fill="#231F20"/>
<path id="Vector_4" d="M29.376 0.180664H36.5502V0.508169L31.4407 0.458331V6.33681L35.7955 6.37003V6.48395L31.4407 6.51717V11.3657L36.5502 11.3158V11.6433H29.376V0.180664Z" fill="#231F20"/>
<path id="Vector_5" d="M42.1318 0.180664C44.1799 0.180664 45.5374 1.34354 45.5374 2.86715C45.5374 4.24362 44.3911 5.20953 42.6397 5.57025C44.8824 5.76723 46.3728 6.97758 46.3728 8.66494C46.3728 10.433 44.7685 11.6457 42.362 11.6457H38.5957V0.180664H42.1318ZM40.6746 5.22376C40.9689 5.48482 41.2964 5.56788 41.6405 5.56788C42.8367 5.56788 43.6388 4.5023 43.6388 2.93123C43.6388 1.34354 42.7702 0.294579 41.4768 0.294579H40.6746V5.22376ZM41.7568 11.4796C43.3279 11.463 44.3769 10.3167 44.3769 8.6151C44.3769 6.89451 43.3445 5.73163 41.8067 5.66756C41.3653 5.65094 41.0045 5.53703 40.677 5.25936V11.482H41.7568V11.4796Z" fill="#231F20"/>
<path id="Vector_6" d="M51.5152 0.180664C54.0688 0.180664 55.8725 1.55713 55.8725 3.60285C55.8725 5.47058 54.3987 6.69754 52.1702 6.82806C53.9881 6.9752 54.6431 8.28522 55.1676 9.64508C55.5782 10.694 55.9057 11.2992 56.5108 11.3158C56.7719 11.3158 57.1326 11.2185 57.3462 10.9883C56.9689 11.4464 56.2973 11.8071 55.4951 11.8071C53.7769 11.8071 53.4802 10.236 52.9249 8.76224C52.6306 7.94348 52.2865 7.1081 51.3847 6.83044C51.024 6.79721 50.6965 6.69991 50.4022 6.40563V11.6457H48.3398V0.180664H51.5152ZM50.4022 6.37003C50.6798 6.6477 50.9741 6.73076 51.3847 6.73076C52.8585 6.73076 53.8576 5.55127 53.8576 3.61947C53.8576 1.67105 52.8585 0.361029 51.3349 0.344416H50.4022V6.37003Z" fill="#231F20"/>
<path id="Vector_7" d="M60.5526 0.180664H58.4902V11.6433H60.5526V0.180664Z" fill="#231F20"/>
<path id="Vector_8" d="M66.5479 0.441719L62.0293 0.508169V0.180664H73.1953V0.508169L68.6767 0.458331V11.6433H66.5479V0.441719Z" fill="#231F20"/>
<path id="Vector_9" d="M76.7166 0.180664H74.6543V11.6433H76.7166V0.180664Z" fill="#231F20"/>
<path id="Vector_10" d="M86.5756 1.58769L86.298 1.78466C85.8898 0.818762 84.5631 0.180365 83.2365 0.180365C81.796 0.180365 81.0745 0.965902 81.0745 1.96503C81.0745 2.71734 81.4827 3.45541 82.2872 4.02736L85.1209 6.07545C86.4309 7.00813 87.0028 8.12354 87.0028 9.10606C87.0028 10.7602 85.3653 11.8092 83.1867 11.8092C81.1884 11.8092 79.437 10.9406 78.5352 9.61393C79.5984 10.8266 81.2383 11.6454 82.629 11.6454C83.9888 11.6454 84.9547 10.8765 84.9547 9.89397C84.9547 8.96129 84.1027 7.8791 83.0395 7.12679L80.6972 5.47265C79.4702 4.60405 78.9932 3.58831 78.9932 2.67225C78.9932 1.04896 80.4836 0 82.6598 0C84.3804 0 85.904 0.65501 86.5756 1.58769Z" fill="#231F20"/>
</g>
<defs>
<clipPath id="clip0_894_1140">
<rect width="87" height="11.8068" fill="white"/>
</clipPath>
</defs>
</svg>
