<svg width="20" height="20" viewBox="0 0 20 20" fill="none" xmlns="http://www.w3.org/2000/svg">
<g id="trash 1">
<path id="Vector" d="M14.1582 18.5977H5.89648C5.46484 18.5977 5.10742 18.2637 5.07812 17.832L4.36914 7.29297C4.33789 6.81836 4.71289 6.41797 5.1875 6.41797H14.8672C15.3418 6.41797 15.7168 6.82031 15.6855 7.29297L14.9766 17.832C14.9473 18.2637 14.5898 18.5977 14.1582 18.5977ZM16.4941 4.88086H3.66211C3.65039 4.88086 3.64258 4.87305 3.64258 4.86133V2.61719C3.64258 2.60547 3.65039 2.59766 3.66211 2.59766H16.4941C16.5059 2.59766 16.5137 2.60547 16.5137 2.61719V4.85938C16.5137 4.87109 16.5059 4.88086 16.4941 4.88086Z" fill="#979797"/>
<path id="Vector_2" d="M13.4941 3.70117H6.63672C6.625 3.70117 6.61719 3.69336 6.61719 3.68164V1.13086C6.61719 1.11914 6.625 1.11133 6.63672 1.11133H13.4941C13.5059 1.11133 13.5137 1.11914 13.5137 1.13086V3.68164C13.5137 3.69141 13.5059 3.70117 13.4941 3.70117Z" fill="#979797"/>
</g>
</svg>
