<?xml version="1.0" encoding="utf-8"?>
<!-- Generator: Adobe Illustrator 25.2.1, SVG Export Plug-In . SVG Version: 6.00 Build 0)  -->
<svg version="1.1" id="Layer_1" xmlns="http://www.w3.org/2000/svg" xmlns:xlink="http://www.w3.org/1999/xlink" x="0px" y="0px"
	 viewBox="0 0 1080 1080" style="enable-background:new 0 0 1080 1080;" xml:space="preserve">
<style type="text/css">
	.st0{fill:#FFFFFF;}
	.st1{fill:#231F20;}
</style>
<rect id="XMLID_542_" x="0" y="0" transform="matrix(-1 -1.224647e-16 1.224647e-16 -1 1079.9995 1080)" class="st0" width="1080" height="1080"/>
<g id="XMLID_1_">
	<path id="XMLID_99_" class="st1" d="M647.18,463.88H434.06c-10.06,6.47-49.19,31.44-58.69,37.51c21.33,28.56,42.66,57.17,64,85.73
		l86.29,115.71c-6.57-21.48-13.19-43.02-19.71-64.5l30.28,70.01c1.42-33.46,2.83-66.98,4.3-100.44
		c1.52,33.41,2.98,66.93,4.45,100.39l30.38-69.96c-6.57,21.48-13.14,42.92-19.66,64.4c15.42-20.73,30.89-41.45,46.35-62.18
		c34.63-46.41,69.26-92.76,103.88-139.17C686.35,488.91,666.79,476.42,647.18,463.88z M424.65,480.97l-37.31,20.98
		c11.58-8.85,23.2-17.69,34.78-26.54c13.7-2.83,27.35-5.66,41.05-8.49L424.65,480.97z M486.63,483.7l-20.93,18.15
		c5.51-8.64,10.97-17.29,16.48-25.93c12.59-2.98,25.22-6.02,37.86-9.05L486.63,483.7z M586.92,483.7l-33.41-16.83
		c12.64,3.03,25.28,6.07,37.86,9.05c5.51,8.64,10.97,17.29,16.48,25.93L586.92,483.7z M618.11,466.92l40.79,8.34l35.03,26.69
		l-37.31-20.98L618.11,466.92z"/>
	<path id="XMLID_98_" class="st1" d="M678.49,377.66l-8.12,6.34c-1.58,1.39-3.17,2.97-4.75,4.56c-18.22,19.21-20.4,45.36-20,61.4
		H435.67c0.4-16.04-1.78-42.19-20-61.4c-1.39-1.58-2.97-3.17-4.56-4.56l-8.32-6.34l5.15-24.16l19.41,15.25l-1.98,8.91
		c-2.18,10.1,0.59,20.6,7.53,28.32c9.31,10.3,19.61,16.04,27.73,14.06c11.69-2.77,22.18-22.97,19.61-50.7
		c-0.79-8.52-4.36-16.64-10.3-23.17l-8.52-9.51l9.31-22.78l16.44,18.22l-2.77,7.13c-4.16,10.1-3.96,21.39,0.4,31.49
		c11.49,25.55,21.39,37.63,29.51,36.64c11.68-1.39,20.2-29.91,25.15-85.36c0.79-9.31-1.58-18.62-6.54-26.54l-5.35-8.52l13.07-20.99
		l13.07,20.99l-5.35,8.52c-4.95,7.92-7.33,17.23-6.34,26.54c4.95,55.46,13.27,83.98,24.96,85.36c8.12,0.99,18.02-11.09,29.51-36.64
		c4.36-10.1,4.56-21.39,0.4-31.49l-2.77-7.13l16.64-18.22l9.31,22.78l-8.71,9.51c-5.94,6.54-9.51,14.66-10.3,23.17
		c-2.57,27.73,7.92,47.93,19.61,50.7c8.12,1.98,18.42-3.76,27.93-14.06c6.73-7.72,9.51-18.22,7.33-28.32l-1.98-8.91l19.41-15.25
		L678.49,377.66z"/>
	<g id="XMLID_27_">
		<path id="XMLID_50_" class="st1" d="M390.92,753.26l-1.17,0.83c-1.72-4.07-7.31-6.76-12.9-6.76c-6.07,0-9.11,3.31-9.11,7.52
			c0,3.17,1.72,6.28,5.11,8.69l11.94,8.62c5.52,3.93,7.93,8.62,7.93,12.76c0,6.97-6.9,11.39-16.08,11.39
			c-8.42,0-15.8-3.66-19.6-9.25c4.49,5.11,11.38,8.56,17.25,8.56c5.73,0,9.8-3.24,9.8-7.38c0-3.93-3.59-8.49-8.07-11.66l-9.87-6.97
			c-5.18-3.66-7.18-7.94-7.18-11.8c0-6.83,6.28-11.25,15.46-11.25C381.67,746.57,388.09,749.33,390.92,753.26z"/>
		<path id="XMLID_47_" class="st1" d="M417.48,747.33l17.66,48.3h-9.18l-4.42-11.94c-3.73-3.86-9.59-6.14-13.94-5.31
			c-1.93,0.34-3.59,1.24-4.9,2.69l-4.97,14.56h-1.52l17.18-48.3H417.48z M403.4,779c1.1-0.97,2.42-1.66,3.93-1.93
			c4.42-0.76,10.21,1.79,14.08,6.28l-10.21-27.88L403.4,779z"/>
		<path id="XMLID_45_" class="st1" d="M442.11,747.33h8.97v47.47l23.18-0.62v1.45h-32.15V747.33z"/>
		<path id="XMLID_43_" class="st1" d="M480.82,747.33h30.22v1.38l-21.53-0.21v24.77l18.35,0.14v0.48l-18.35,0.14v20.42l21.53-0.21
			v1.38h-30.22V747.33z"/>
		<path id="XMLID_39_" class="st1" d="M534.57,747.33c8.62,0,14.35,4.9,14.35,11.32c0,5.8-4.83,9.87-12.21,11.39
			c9.45,0.83,15.73,5.93,15.73,13.04c0,7.45-6.76,12.56-16.9,12.56h-15.87v-48.3H534.57z M528.43,768.58
			c1.24,1.1,2.62,1.45,4.07,1.45c5.04,0,8.42-4.49,8.42-11.11c0-6.69-3.66-11.11-9.11-11.11h-3.38V768.58z M532.98,794.93
			c6.62-0.07,11.04-4.9,11.04-12.07c0-7.25-4.35-12.14-10.83-12.42c-1.86-0.07-3.38-0.55-4.76-1.72v26.22H532.98z"/>
		<path id="XMLID_36_" class="st1" d="M574.11,747.33c10.76,0,18.35,5.8,18.35,14.42c0,7.87-6.21,13.04-15.59,13.59
			c7.66,0.62,10.42,6.14,12.63,11.87c1.73,4.42,3.11,6.97,5.66,7.04c1.1,0,2.62-0.41,3.52-1.38c-1.59,1.93-4.42,3.45-7.8,3.45
			c-7.25,0-8.49-6.62-10.83-12.83c-1.24-3.45-2.69-6.97-6.49-8.14c-1.52-0.14-2.9-0.55-4.14-1.79v22.08h-8.69v-48.3H574.11z
			 M569.41,773.41c1.17,1.17,2.42,1.52,4.14,1.52c6.21,0,10.42-4.97,10.42-13.11c0-8.21-4.21-13.73-10.63-13.8h-3.93V773.41z"/>
		<path id="XMLID_34_" class="st1" d="M603.5,747.33h8.69v48.3h-8.69V747.33z"/>
		<path id="XMLID_32_" class="st1" d="M637.45,748.43l-19.04,0.28v-1.38h47.06v1.38l-19.04-0.21v47.13h-8.97V748.43z"/>
		<path id="XMLID_30_" class="st1" d="M671.6,747.33h8.69v48.3h-8.69V747.33z"/>
		<path id="XMLID_28_" class="st1" d="M721.83,753.26l-1.17,0.83c-1.72-4.07-7.31-6.76-12.9-6.76c-6.07,0-9.11,3.31-9.11,7.52
			c0,3.17,1.72,6.28,5.11,8.69l11.94,8.62c5.52,3.93,7.93,8.62,7.93,12.76c0,6.97-6.9,11.39-16.08,11.39
			c-8.42,0-15.8-3.66-19.6-9.25c4.49,5.11,11.38,8.56,17.25,8.56c5.73,0,9.8-3.24,9.8-7.38c0-3.93-3.59-8.49-8.07-11.66l-9.87-6.97
			c-5.18-3.66-7.18-7.94-7.18-11.8c0-6.83,6.28-11.25,15.46-11.25C712.58,746.57,719,749.33,721.83,753.26z"/>
	</g>
</g>
</svg>
